<?xml version="1.0" standalone="no"?>
<!DOCTYPE svg PUBLIC "-//W3C//DTD SVG 20010904//EN"
 "http://www.w3.org/TR/2001/REC-SVG-20010904/DTD/svg10.dtd">
<svg version="1.0" xmlns="http://www.w3.org/2000/svg"
 width="900.000000pt" height="720.000000pt" viewBox="0 0 900.000000 720.000000"
 preserveAspectRatio="xMidYMid meet">
<metadata>
Created by potrace 1.10, written by Peter Selinger 2001-2011
</metadata>
<g transform="translate(0.000000,720.000000) scale(0.100000,-0.100000)"
fill="#000000" stroke="none">
<path d="M4075 6754 c-159 -20 -293 -43 -351 -60 -28 -7 -59 -14 -69 -14 -9 0
-38 -7 -64 -14 -25 -8 -73 -23 -106 -32 -87 -25 -173 -53 -193 -63 -9 -5 -53
-24 -97 -42 -44 -18 -84 -36 -90 -40 -5 -4 -66 -36 -135 -71 -139 -72 -208
-113 -292 -173 -31 -22 -82 -58 -112 -79 -31 -22 -64 -47 -73 -55 -10 -9 -43
-36 -73 -61 -76 -63 -96 -79 -148 -126 -45 -41 -45 -42 -30 -66 24 -36 47 -58
63 -58 8 0 40 22 72 48 146 121 419 318 483 348 8 4 32 18 54 32 66 41 263
140 359 181 159 67 365 129 537 162 36 6 99 18 140 27 121 24 643 29 790 7
343 -50 664 -143 895 -257 139 -69 279 -154 415 -249 47 -33 103 -72 125 -87
22 -15 91 -69 154 -122 62 -52 120 -101 129 -108 35 -27 -2 -34 -159 -28 -85
3 -184 8 -220 11 -51 5 -74 3 -98 -10 -17 -9 -35 -14 -40 -11 -8 5 -26 45 -58
129 -17 46 -54 87 -133 147 -30 24 -33 30 -32 74 3 75 -29 130 -92 160 -28 13
-62 26 -76 29 -34 8 -165 -24 -210 -52 -19 -11 -44 -25 -55 -30 -37 -17 -118
-95 -131 -128 -24 -56 -18 -85 34 -154 53 -69 92 -146 128 -251 31 -88 31
-106 -3 -120 -16 -6 -102 -47 -192 -92 -135 -67 -170 -89 -200 -125 -20 -24
-44 -51 -53 -60 -11 -9 -18 -30 -18 -51 0 -30 -9 -45 -63 -98 -34 -34 -67 -62
-73 -62 -5 0 -41 32 -79 71 -81 81 -279 259 -290 259 -21 0 -95 73 -95 93 0
37 -46 123 -76 144 -57 39 -125 65 -175 66 l-51 2 -68 -75 c-38 -41 -77 -93
-88 -114 -19 -37 -19 -41 -4 -75 33 -72 55 -91 153 -130 297 -120 400 -200
484 -379 19 -40 35 -75 35 -78 0 -26 145 -169 243 -239 38 -27 49 -30 109 -28
92 3 128 22 187 102 57 76 129 147 219 216 l63 49 24 -30 c39 -47 55 -89 55
-140 0 -45 5 -66 40 -164 6 -19 15 -48 20 -65 12 -45 53 -159 75 -210 14 -33
40 -101 60 -155 15 -42 62 -160 107 -267 17 -43 52 -109 77 -148 40 -63 45
-76 47 -135 4 -154 95 -381 235 -585 57 -83 142 -224 193 -318 40 -72 77 -106
99 -89 25 21 139 63 156 57 17 -5 40 -55 76 -165 10 -30 25 -63 34 -73 21 -25
80 -54 161 -79 36 -11 73 -27 84 -37 37 -32 96 -179 96 -238 0 -69 55 -166
115 -203 47 -29 127 -28 155 2 28 30 32 53 28 139 -4 57 -14 97 -45 174 -22
55 -48 127 -58 160 -47 160 -74 210 -138 255 -23 16 -52 39 -64 52 -22 22
-113 196 -113 217 0 11 -16 49 -61 148 -16 35 -29 67 -29 72 0 5 -6 22 -14 38
-64 131 -131 292 -123 299 5 5 45 -35 107 -106 35 -41 77 -88 93 -105 16 -16
57 -66 90 -110 139 -183 198 -244 300 -312 56 -37 73 -54 93 -96 13 -29 24
-59 24 -67 0 -32 56 -158 80 -180 8 -8 64 -83 77 -105 30 -49 113 -230 113
-246 0 -17 87 -194 116 -236 14 -21 30 -47 35 -58 5 -11 25 -47 44 -80 19 -33
51 -94 71 -135 19 -41 40 -83 44 -92 41 -76 67 -256 41 -273 -16 -9 -41 -110
-44 -177 l-2 -63 75 -3 c81 -3 100 7 100 54 0 30 17 40 38 21 29 -25 215 -77
277 -77 39 0 49 15 61 90 11 69 1 84 -114 171 -117 88 -158 138 -185 229 -47
159 -67 276 -75 440 l-7 135 -58 116 c-31 64 -57 119 -57 122 0 3 -46 83 -103
179 -68 114 -109 195 -121 238 -28 101 -44 126 -147 223 -82 79 -104 94 -155
110 -32 9 -77 17 -100 17 -77 0 -87 44 -16 78 26 12 54 26 62 31 35 20 92 41
110 41 11 0 20 6 20 13 0 6 -30 55 -66 107 -96 139 -111 163 -161 258 -81 154
-93 179 -93 206 0 17 -13 37 -42 63 -55 48 -201 195 -253 253 -85 95 -255 385
-255 435 0 8 -6 29 -14 47 -34 80 -46 147 -46 253 0 130 18 196 69 255 l36 42
90 -56 c50 -30 129 -80 176 -111 62 -39 96 -55 120 -55 41 0 53 -12 104 -106
71 -130 128 -216 245 -374 47 -63 116 -163 153 -222 66 -103 137 -181 184
-199 12 -4 41 -20 65 -35 37 -24 52 -27 106 -25 35 1 72 -1 83 -4 20 -7 39
-60 39 -112 0 -37 29 -73 60 -73 21 0 118 109 168 190 l30 49 -75 125 -75 126
-46 2 c-26 1 -90 2 -142 3 -115 1 -159 17 -193 72 -13 21 -54 110 -91 198 -60
140 -101 232 -165 365 -50 105 -108 165 -246 255 -50 32 -125 93 -167 136 -67
67 -78 83 -78 113 0 40 -15 58 -62 76 -86 33 -194 93 -229 126 -21 20 -28 38
-31 81 -5 51 -9 59 -59 107 -74 71 -321 282 -394 337 -123 91 -257 178 -410
266 -129 74 -365 178 -460 203 -16 4 -41 12 -55 18 -88 36 -286 78 -515 109
-152 21 -547 25 -690 7z"/>
<path d="M2295 5541 c-88 -50 -157 -143 -181 -243 -11 -46 -10 -48 10 -48 26
0 185 28 195 34 4 3 68 6 142 7 157 3 171 -2 256 -88 31 -32 59 -53 67 -50 19
8 37 99 30 150 -13 78 -63 151 -136 199 -80 51 -140 68 -243 68 -81 0 -95 -3
-140 -29z"/>
<path d="M2962 4795 c-2 -112 -1 -209 3 -214 4 -7 16 -3 33 9 26 19 29 19 91
4 78 -20 218 -118 248 -174 10 -19 57 -93 105 -165 47 -71 96 -148 108 -170
12 -22 31 -58 44 -80 24 -45 54 -101 67 -127 5 -10 18 -48 30 -85 11 -38 25
-81 30 -98 28 -82 39 -143 34 -177 -8 -45 4 -69 52 -105 29 -22 51 -29 107
-35 39 -3 83 -9 97 -13 34 -9 91 39 125 106 28 56 30 88 8 152 -19 55 -57 90
-135 124 l-57 25 -45 106 c-25 59 -53 132 -63 162 -9 30 -23 69 -31 87 -7 17
-13 36 -13 43 0 7 -7 33 -15 59 -8 25 -24 77 -35 115 -28 93 -65 169 -98 201
-15 14 -63 54 -107 88 -43 34 -89 78 -102 97 -44 70 -57 81 -99 87 -34 4 -54
17 -112 74 -70 68 -73 69 -125 69 -33 0 -67 7 -92 20 -22 11 -42 20 -45 20 -3
0 -7 -92 -8 -205z"/>
<path d="M1605 4967 c-40 -9 -113 -12 -149 -5 -13 2 -21 -5 -26 -22 -26 -92
-100 -180 -152 -180 -11 0 -29 -5 -41 -12 -12 -6 -35 -15 -52 -19 -55 -13
-135 -47 -182 -76 -25 -15 -53 -33 -62 -38 -76 -48 -139 -92 -206 -147 -221
-179 -291 -218 -391 -218 -56 0 -115 -19 -146 -47 -10 -8 -27 -35 -38 -59 -11
-24 -29 -63 -40 -87 -24 -52 -25 -63 -4 -102 9 -16 19 -57 23 -90 l6 -60 138
-3 137 -3 54 40 c85 63 166 172 166 223 0 62 118 123 390 204 256 76 289 94
320 174 19 48 22 50 125 71 33 7 80 26 104 42 41 26 48 28 82 18 26 -8 45 -8
64 -1 55 21 81 13 105 -31 11 -23 43 -63 71 -89 27 -25 49 -51 49 -57 0 -15
26 -24 46 -16 39 15 -26 211 -125 378 -44 73 -173 211 -204 217 -12 2 -40 0
-62 -5z m-1182 -944 c20 -18 23 -73 5 -91 -15 -15 -158 -17 -158 -2 0 6 10 27
23 48 13 20 27 45 30 56 6 15 14 17 45 11 20 -4 45 -14 55 -22z"/>
<path d="M4702 3897 c-12 -7 -29 -23 -38 -35 -17 -25 -54 -186 -54 -237 0 -20
-12 -48 -30 -74 -35 -48 -33 -72 8 -89 l27 -11 -35 1 c-19 1 -51 -2 -70 -7
-148 -33 -310 -311 -310 -531 l0 -44 -44 0 c-62 0 -109 34 -117 85 -7 40 -30
65 -61 65 -28 0 -73 26 -158 89 -82 61 -95 69 -155 101 -22 12 -53 34 -68 48
-27 25 -67 101 -67 126 0 18 -50 67 -84 83 -33 15 -42 20 -121 70 -66 42 -125
123 -125 172 0 40 -20 36 -190 -29 -30 -12 -68 -25 -85 -30 -44 -12 -141 -50
-309 -121 -38 -16 -72 -29 -77 -29 -5 0 -37 -13 -71 -28 -134 -60 -215 -83
-319 -89 l-86 -5 -43 -66 c-25 -37 -52 -87 -61 -112 -9 -25 -30 -68 -47 -96
-18 -28 -32 -57 -32 -63 0 -20 -39 -89 -65 -115 -15 -15 -25 -37 -25 -53 0
-15 -5 -45 -11 -66 -13 -49 -6 -56 31 -29 55 41 55 20 -1 -50 -62 -79 -84
-125 -119 -253 -25 -90 -26 -200 -2 -251 32 -71 53 -93 133 -139 61 -36 120
-88 262 -228 101 -100 215 -209 253 -242 73 -65 229 -185 239 -185 3 0 30 -20
61 -45 30 -25 65 -45 78 -45 12 0 33 -12 47 -26 22 -23 24 -33 22 -104 -2 -82
-22 -138 -64 -183 -45 -49 -7 -78 78 -58 81 18 258 43 284 39 22 -3 24 -8 27
-60 l3 -58 52 -2 c77 -3 171 3 179 10 4 4 13 35 21 70 l15 63 -37 37 c-20 21
-48 55 -63 77 -16 22 -97 110 -181 195 -209 212 -270 305 -408 624 -61 142
-82 161 -304 269 -79 38 -99 48 -183 82 -24 10 -45 22 -48 27 -9 13 37 126 62
153 28 30 30 52 8 76 -8 9 -11 20 -6 23 10 6 82 -51 82 -66 0 -16 43 -47 68
-48 12 0 22 3 22 8 0 4 17 25 38 47 47 49 185 214 232 275 18 25 55 67 81 93
41 41 51 47 68 38 11 -6 49 -11 85 -11 l65 0 123 -92 c179 -134 259 -188 279
-188 10 0 33 18 51 39 44 51 137 125 146 116 4 -3 -6 -16 -21 -27 -37 -27 -52
-65 -35 -86 11 -13 69 -52 233 -157 75 -49 114 -67 196 -95 31 -11 91 -40 133
-65 42 -25 81 -45 87 -45 6 0 23 -6 37 -14 15 -7 52 -21 83 -30 51 -15 59 -15
105 0 62 21 94 51 144 135 70 119 129 274 164 434 10 44 22 98 28 120 5 22 13
60 18 85 18 88 57 195 109 294 23 42 41 83 41 91 0 16 45 21 54 6 4 -5 29 -12
57 -16 40 -6 54 -4 69 10 17 15 21 15 49 1 34 -18 156 -22 166 -6 10 16 22 12
59 -21 34 -29 37 -30 73 -18 56 19 73 37 73 76 0 62 -15 74 -215 184 -33 18
-73 41 -90 51 -16 10 -39 22 -51 27 -11 5 -50 27 -85 48 -120 74 -164 96 -219
109 -68 17 -89 17 -118 1z m-1102 -1077 c-19 -13 -30 -13 -30 0 0 6 10 10 23
10 18 0 19 -2 7 -10z"/>
<path d="M5390 1730 l-155 -5 -65 -130 c-36 -72 -75 -147 -87 -168 -13 -21
-23 -50 -23 -65 0 -23 55 -138 164 -345 16 -31 37 -58 46 -60 28 -7 337 -9
374 -1 31 5 39 13 56 51 11 24 32 63 47 86 16 23 39 64 53 90 26 51 54 85 84
102 17 10 17 13 -3 70 -25 74 -51 143 -80 215 -26 62 -47 117 -54 141 -6 18
-72 30 -151 27 -28 -1 -121 -5 -206 -8z"/>
<path d="M6198 1027 c-47 -39 -104 -86 -125 -103 -43 -34 -264 -168 -333 -201
-120 -57 -221 -103 -229 -103 -5 0 -22 -6 -38 -14 -15 -8 -48 -22 -73 -31 -25
-9 -60 -23 -78 -31 -18 -8 -42 -14 -53 -14 -11 0 -29 -5 -40 -11 -11 -6 -41
-14 -67 -19 -26 -4 -94 -19 -152 -33 -189 -47 -253 -56 -436 -67 -202 -12
-472 0 -614 26 -238 43 -320 61 -411 89 -26 8 -54 15 -63 15 -8 0 -30 6 -48
14 -18 8 -51 21 -73 29 -176 66 -282 119 -493 245 -164 98 -302 191 -348 233
-11 10 -25 19 -31 19 -13 0 -73 -73 -73 -87 0 -18 190 -162 323 -245 38 -24
80 -51 95 -60 15 -10 36 -22 47 -28 11 -6 36 -20 55 -32 212 -128 532 -245
860 -312 219 -45 288 -51 595 -51 308 0 342 3 575 51 429 88 839 261 1120 471
113 85 288 235 289 249 1 15 -62 74 -79 74 -8 0 -54 -33 -102 -73z"/>
</g>
</svg>
