<svg xmlns="http://www.w3.org/2000/svg" viewBox="13.87 10.49 72.25 79.03"><path d="m74.227 24.297c-0.77734-0.64062-1.8633-0.76953-3.0625-0.35547-1.0625 0.36719-2.1133 1.1328-2.957 2.1562-1.8672 2.2578-2.1445 5.0039-0.63281 6.2539 0.48438 0.39844 1.0859 0.58984 1.7383 0.58984 1.3867 0 3.0156-0.85547 4.2812-2.3906 0.84375-1.0234 1.3984-2.1992 1.5586-3.3125 0.17969-1.2539-0.14844-2.2969-0.92578-2.9414zm-0.63672 2.7148c-0.11719 0.81641-0.55859 1.7383-1.2109 2.5312-1.3672 1.6562-3.0977 2.1641-3.7969 1.5898-0.69922-0.57812-0.52344-2.3711 0.84375-4.0273 0.65234-0.78906 1.4766-1.3984 2.2539-1.668 0.28906-0.10156 0.55859-0.14844 0.80078-0.14844 0.30078 0 0.55469 0.078126 0.73828 0.22656 0.33203 0.27344 0.46484 0.82031 0.36719 1.4961zm9.543-0.47656c2.0469-2.4141 4.0117-10.578 2.3984-15.383-0.09375-0.27734-0.33203-0.48047-0.62109-0.52734-4.5234-0.73828-11.305 1.5625-14.227 4.8281-0.007813 0.007813-0.011719 0.015625-0.019532 0.023437l-9.3281 11.293-6.0078-1.668c-0.17969-0.050781-0.375-0.035156-0.54688 0.046876l-6.3203 2.957c-0.24609 0.11328-0.41406 0.34766-0.44922 0.61719-0.035157 0.26953 0.070312 0.53516 0.28125 0.71094l0.61328 0.50781c-0.3125-0.011718-0.62891-0.027344-0.94141-0.027344-16.434 0-29.805 13.371-29.805 29.805 0 0.89453 0.054688 1.7852 0.13281 2.668-4.2812 5.9648-5.7031 15.402-3.1445 21.199 1.293 2.9375 3.4727 4.6406 6.3008 4.9297 0.27734 0.027344 0.56641 0.042969 0.87109 0.042969 2.3711 0 5.5156-0.93359 9.6133-3.7344 4.7891 3.0625 10.312 4.6914 16.031 4.6914 7.8672 0 15.328-3.125 21-8.7969 5.6758-5.6719 8.8008-13.133 8.8008-21.008 0-3.8945-0.74609-7.6797-2.2031-11.254l1.1641-4.6094c0.046876-0.18359 0.027344-0.375-0.058593-0.54688l-2.7734-5.5859 9.2266-11.172c0.003906-0.003907 0.003906-0.007813 0.007812-0.007813h0.003906s0-0.003906 0.003907-0.003906zm1.0391-14.418c1.0273 3.8555-0.26562 10.152-1.8125 12.762l-10.336-8.5391c2.5508-2.6758 8.2266-4.6328 12.148-4.2227zm-11.812 24.977-5.7734 6.9922-0.42578 0.51172-3.7617-3.1094-0.83203-0.6875 3.4766-4.2109c0.27734-0.33594 0.23047-0.83594-0.10547-1.1133-0.33594-0.27734-0.83594-0.23047-1.1133 0.10547l-3.4766 4.2109-4.5938-3.7969 0.70703-0.85547 5.7734-6.9922 8.7656-10.613 10.406 8.5977-9.0508 10.953zm-22.344 11.789c-0.03125-0.54687-0.058594-1.0625-0.050781-1.4688 0.027344-1.2617 0.69531-2.4531 1.7344-3.7852l7.1992 5.9453c-0.88281 1.0352-2.1055 2.043-3.9258 2.1562-2.0781 0.12891-3.8281 0.66406-5.0234 1.1562 0.21875-1.3945 0.13672-2.8008 0.070312-4zm2.0703-6.9883-3.3125-2.7383 5.7148-2.1484 8.1172 6.707 2.8008 2.3125-1.0312 6.0195zm3.0938-15.199 5.0469 1.4023-4.4883 5.4297-5.4844-4.5312 4.9258-2.3047zm-35.695 41.777c0.64844 2.1172 1.5391 4.1562 2.6484 6.0859-0.74609 0.36328-1.3594 0.53906-1.8203 0.53906-0.23438 0-0.43359-0.046875-0.58984-0.13281-0.80078-0.44922-1.1094-2.6367-0.23828-6.4922zm28.473 19.457c-5.1992 0-10.23-1.4297-14.641-4.1094 5.7344-4.2852 13.188-12.055 22.785-25.527 0.25391-0.35547 0.17188-0.84766-0.18359-1.1016s-0.84766-0.17188-1.1016 0.18359c-10.242 14.379-17.852 21.961-23.352 25.836l-0.003906 0.003906c-4.1992 2.957-7.1758 3.7539-9.1562 3.7539-0.24609 0-0.48047-0.011719-0.69922-0.035156-2.2617-0.23047-3.9492-1.5742-5.0156-3.9961-2.1133-4.793-1.1484-12.645 2.0195-18.137 0.03125 0.17188 0.058594 0.34766 0.089844 0.51953-1.0938 3.5391-2.4492 9.5039 0.25 11.02 0.39453 0.22266 0.83984 0.32422 1.332 0.32422 0.91797 0 2-0.38281 3.1836-1.0352 0.0625-0.019531 0.12109-0.042968 0.17578-0.078125 0.03125-0.019531 0.046875-0.046875 0.074219-0.070312 4.6328-2.6875 10.809-9.5742 15.699-16.109 0.70313-0.9375 5.1758-7.1641 5.8711-8.1406 0.25391-0.35547 0.16797-0.84766-0.1875-1.1016-0.35547-0.25391-0.84766-0.16797-1.1016 0.1875-0.69141 0.97656-5.1484 7.1758-5.8438 8.1094-6.2695 8.3789-11.34 13.207-14.645 15.344-2.457-4.2656-3.7656-9.1055-3.7656-14.062 0-15.562 12.66-28.223 28.223-28.223 1.0078 0 2.0234 0.058594 3.0234 0.16406l3.7539 3.1016-0.57422 0.69141-7.2266 2.7188c-0.26562 0.097656-0.45312 0.33203-0.5 0.60938-0.046875 0.27734 0.058594 0.55859 0.27734 0.73828l3.7656 3.1094c-1.25 1.6016-2.0625 3.0703-2.0977 4.7617-0.007813 0.46875 0.019531 1.0156 0.054687 1.5938 0.089844 1.5625 0.19922 3.5039-0.43359 5.1055-0.13281 0.33594-0.019531 0.71875 0.27344 0.92969 0.13672 0.10156 0.30078 0.14844 0.46484 0.14844 0.17188 0 0.33984-0.054688 0.48047-0.16406 0.10938-0.066407 2.4336-1.4766 5.8516-1.6914 2.5625-0.16016 4.1719-1.6836 5.0508-2.7227l4.3047 3.5547c0.14453 0.11719 0.32422 0.17969 0.50391 0.17969 0.09375 0 0.18359-0.015625 0.27344-0.050781 0.26562-0.097657 0.45703-0.32812 0.50391-0.60938l1.3047-7.6094 0.28906-0.35156 6.4492 5.3281c0.14453 0.11719 0.32031 0.17969 0.50391 0.17969 0.082031 0 0.16406-0.011719 0.24609-0.039063 0.11719-0.039062 0.21875-0.10938 0.30469-0.19531 0.91406 2.8086 1.3828 5.7344 1.3828 8.7305 0 15.297-12.926 28.223-28.223 28.223zm27.16-44.188-1.332 5.2695-5.4844-4.5312 4.4883-5.4297z"/></svg>