<svg xmlns="http://www.w3.org/2000/svg" viewBox="9.37 9.37 81.25 81.25"><path d="m90.355 88.016-10.695-16.641c4.9648-6.7227 7.582-14.672 7.582-23.07 0-21.469-17.465-38.934-38.934-38.934-21.469 0.003906-38.934 17.469-38.934 38.938s17.465 38.934 38.934 38.934c6.9766 0 13.797-1.8633 19.777-5.4023l20.18 8.6484c0.21484 0.09375 0.44141 0.13672 0.66797 0.13672 0.48438 0 0.96484-0.21094 1.293-0.59766 0.48047-0.56641 0.53516-1.3828 0.12891-2.0078zm-21.738-9.6328c-0.21484-0.089843-0.44141-0.13672-0.66797-0.13672-0.3125 0-0.62109 0.085937-0.89453 0.25391-5.625 3.5-12.105 5.3516-18.75 5.3516-19.602 0-35.547-15.945-35.547-35.547 0.003907-19.598 15.949-35.543 35.551-35.543 19.602 0 35.547 15.945 35.547 35.547 0 8.0352-2.625 15.621-7.5898 21.941-0.44531 0.56641-0.48438 1.3555-0.09375 1.9609l8.3477 12.992-15.902-6.8164zm-1.6914-53.777c0-0.54688-0.26562-1.0625-0.71094-1.3789-0.44922-0.31641-1.0234-0.39844-1.5391-0.21875l-33.855 11.848c-0.67969 0.23828-1.1328 0.87891-1.1328 1.5977v20.484c-3.8594 0.78516-6.7695 4.207-6.7695 8.293 0 4.668 3.7969 8.4648 8.4648 8.4648 4.668 0 8.4648-3.7969 8.4648-8.4648v-19.094l16.926-5.6445v9.6719c-3.8594 0.78516-6.7695 4.207-6.7695 8.293 0 4.668 3.7969 8.4648 8.4648 8.4648s8.4648-3.7969 8.4648-8.4648l-0.007813-33.848zm-3.3867 33.855c0 2.8008-2.2773 5.0781-5.0781 5.0781-2.8008 0-5.0781-2.2773-5.0781-5.0781 0-2.8008 2.2773-5.0781 5.0781-5.0781 0.9375 0 1.6914-0.75781 1.6914-1.6914v-13.543c0-0.54297-0.26172-1.0547-0.70312-1.3711-0.44141-0.32031-1.0117-0.40234-1.5273-0.23438l-20.312 6.7695c-0.69141 0.23047-1.1562 0.875-1.1562 1.6055v20.312c0 2.8008-2.2773 5.0781-5.0781 5.0781s-5.0781-2.2773-5.0781-5.0781 2.2773-5.0781 5.0781-5.0781c0.9375 0 1.6914-0.75781 1.6914-1.6914v-20.805l30.469-10.664v31.469zm-15.234-35.547v-3.3867c0-0.93359 0.75781-1.6914 1.6914-1.6914 0.9375 0 1.6914 0.75781 1.6914 1.6914v3.3867c0 0.93359-0.75781 1.6914-1.6914 1.6914-0.9375 0-1.6914-0.75781-1.6914-1.6914zm3.3867 50.781v3.3867c0 0.93359-0.75781 1.6914-1.6914 1.6914-0.9375 0-1.6914-0.75781-1.6914-1.6914v-3.3867c0-0.93359 0.75781-1.6914 1.6914-1.6914 0.9375 0 1.6914 0.75781 1.6914 1.6914zm27.082-23.699h-3.3867c-0.9375 0-1.6914-0.75781-1.6914-1.6914 0-0.93359 0.75781-1.6914 1.6914-1.6914h3.3867c0.9375 0 1.6914 0.75781 1.6914 1.6914 0 0.93359-0.75781 1.6914-1.6914 1.6914zm-54.168 0h-3.3867c-0.9375 0-1.6914-0.75781-1.6914-1.6914 0-0.93359 0.75781-1.6914 1.6914-1.6914h3.3867c0.9375 0 1.6914 0.75781 1.6914 1.6914 0 0.93359-0.75781 1.6914-1.6914 1.6914zm46.934 17.457c0.66016 0.66016 0.66016 1.7344 0 2.3945-0.33203 0.33203-1.2188 0.94141-2.3945 0l-2.3945-2.3945c-0.66016-0.66016-0.66016-1.7344 0-2.3945s1.7305-0.66016 2.3945 0zm-43.09-38.301c-0.66016-0.66016-0.66016-1.7344 0-2.3945 0.66016-0.66016 1.7305-0.66016 2.3945 0l2.3945 2.3945c0.66016 0.66016 0.66016 1.7344 0 2.3945-0.33203 0.33203-1.1992 0.83594-2.3945 0z"/></svg>