<svg xmlns="http://www.w3.org/2000/svg" viewBox="7.41 3.7 85.18 92.6"><path d="m61.109 94.445v-20.371c0-1.0195-0.83203-1.8516-1.8516-1.8516h-6.6484l-3.168-3.168c-0.46484-0.46484-1.1289-0.64844-1.7578-0.48047l-6.3906 1.5938-0.79688-0.79688-1.2031-3.6094 5.1523-2.5781 2.8711 1.4453c0.51953 0.25781 1.1289 0.25781 1.6484 0l7.0352-3.5195h3.2578c1.0195 0 1.8516-0.83203 1.8516-1.8516v-9.2578c0-1.0195-0.83203-1.8516-1.8516-1.8516h-38.887v-28.703c0-6.6289 5.4062-12.039 12.035-12.039s12.039 5.4102 12.039 12.039v15.738c0 1.0195 0.83203 1.8516 1.8516 1.8516s1.8516-0.83203 1.8516-1.8516v-15.742c0-8.6836-7.0547-15.738-15.742-15.738-8.6836 0-15.738 7.0547-15.738 15.742v28.703h-7.4102c-1.0195 0-1.8516 0.83203-1.8516 1.8516v44.445c0 1.0195 0.83203 1.8516 1.8516 1.8516h50c1.0195 0 1.8516-0.83203 1.8516-1.8516zm-3.7031-1.8516h-46.297v-40.742h46.297v5.5547h-1.8516c-0.29688 0-0.57422 0.074219-0.83203 0.20312l-6.5742 3.2812-2.8711-1.4453c-0.51953-0.25781-1.1289-0.25781-1.6484 0l-7.4062 3.7031c-0.83203 0.40625-1.2227 1.3711-0.92578 2.2422l1.8516 5.5547c0.09375 0.27734 0.24219 0.51953 0.44531 0.72266l1.8516 1.8516c0.46484 0.46484 1.1289 0.64844 1.7578 0.48047l6.3906-1.5938 2.9648 2.9648c0.33203 0.35156 0.79297 0.55469 1.293 0.55469h5.5547zm34.648-85.723-12.574 12.574 3.3164 3.3164c0.72266 0.72266 0.72266 1.8906 0 2.6094-0.37109 0.37109-0.83203 0.55469-1.3164 0.55469-0.48047 0-0.94531-0.18359-1.3164-0.53516l-3.3164-3.3164-2.9453 2.9453 3.3164 3.3164c0.72266 0.72266 0.72266 1.8906 0 2.6094-0.34766 0.35156-0.8125 0.53516-1.293 0.53516s-0.94531-0.18359-1.3164-0.53516l-3.3164-3.3164-3.3164 3.3164c-0.14844 0.14844-0.29687 0.25781-0.48047 0.35156l-9.4648 4.7227 0.40625 0.83203 9.7578-1.6289c0.74219-0.12891 1.5 0.22266 1.8906 0.87109 0.39062 0.64844 0.35156 1.4648-0.09375 2.0742l-4.8711 6.5 0.44531 0.89062 7.3516-4.4062 16.5-16.5c0.72266-0.72266 1.8906-0.72266 2.6094 0 0.72266 0.72266 0.72266 1.8906 0 2.6094l-16.668 16.668c-0.10938 0.10937-0.22266 0.20312-0.35156 0.27734l-9.2578 5.5547c-0.26953 0.14453-0.60156 0.23828-0.93359 0.23828-0.16797 0-0.35156-0.019531-0.51953-0.074219-0.5-0.14844-0.90625-0.48047-1.1484-0.94531l-1.8516-3.7031c-0.31641-0.62891-0.24219-1.3711 0.16797-1.9453l2.7773-3.7031-6.5547 1.0938c-0.79688 0.12891-1.5938-0.27734-1.9648-1l-1.8516-3.7031c-0.46484-0.90625-0.09375-2.0195 0.83203-2.4805l10.832-5.4258 23.891-23.871c0.72266-0.72266 1.8906-0.72266 2.6094 0 0.72266 0.72266 0.74219 1.9062 0.019532 2.6289z"/></svg>